<?xml version="1.0" encoding="UTF-8"?>
<svg xmlns="http://www.w3.org/2000/svg" id="Layer_1" data-name="Layer 1" viewBox="0 0 24 24">
  <path d="m22.5,9h-.5v-1c0-2.757-2.243-5-5-5h-4V1c0-.552-.447-1-1-1s-1,.448-1,1v2h-4c-2.757,0-5,2.243-5,5v1h-.5c-.827,0-1.5.673-1.5,1.5v3c0,.827.673,1.5,1.5,1.5h.5v1c0,2.757,2.243,5,5,5h7.697l3.963,2.642c.36.24.775.361,1.191.361.348,0,.696-.084,1.015-.255.699-.375,1.134-1.1,1.134-1.894v-6.855h.5c.827,0,1.5-.673,1.5-1.5v-3c0-.827-.673-1.5-1.5-1.5Zm-14-1c.828,0,1.5.672,1.5,1.5s-.672,1.5-1.5,1.5-1.5-.672-1.5-1.5.672-1.5,1.5-1.5Zm8.031,7.573c-1.037.651-2.666,1.427-4.531,1.427s-3.494-.776-4.531-1.427c-.468-.293-.609-.911-.315-1.378.294-.467.911-.609,1.378-.316.815.512,2.079,1.121,3.469,1.121s2.653-.609,3.469-1.121c.466-.294,1.085-.152,1.378.316.294.468.152,1.085-.315,1.378Zm-1.031-4.573c-.828,0-1.5-.672-1.5-1.5s.672-1.5,1.5-1.5,1.5.672,1.5,1.5-.672,1.5-1.5,1.5Z"/>
</svg>
