<svg width="24" height="24" viewBox="0 0 24 24" fill="none" xmlns="http://www.w3.org/2000/svg">
<path d="M20.3077 0H3.69231C2.71337 0.00106895 1.77484 0.390422 1.08263 1.08263C0.390422 1.77484 0.00106895 2.71337 0 3.69231V20.3077C0.00106895 21.2866 0.390422 22.2252 1.08263 22.9174C1.77484 23.6096 2.71337 23.9989 3.69231 24H20.3077C21.2866 23.9989 22.2252 23.6096 22.9174 22.9174C23.6096 22.2252 23.9989 21.2866 24 20.3077V3.69231C23.9989 2.71337 23.6096 1.77484 22.9174 1.08263C22.2252 0.390422 21.2866 0.00106895 20.3077 0ZM18.2452 7.97827L10.4913 17.209C10.4063 17.3103 10.3005 17.3922 10.181 17.449C10.0616 17.5059 9.9313 17.5364 9.79904 17.5385H9.78346C9.65408 17.5384 9.52615 17.5112 9.40798 17.4585C9.2898 17.4058 9.18402 17.3289 9.0975 17.2327L5.77442 13.5404C5.69003 13.4509 5.62438 13.3454 5.58133 13.2301C5.53828 13.1149 5.51871 12.9922 5.52375 12.8693C5.5288 12.7464 5.55836 12.6257 5.61071 12.5144C5.66306 12.403 5.73713 12.3033 5.82858 12.221C5.92003 12.1387 6.027 12.0755 6.14321 12.0352C6.25943 11.9948 6.38254 11.9781 6.50531 11.986C6.62808 11.9939 6.74803 12.0262 6.85811 12.0812C6.9682 12.1361 7.0662 12.2124 7.14635 12.3058L9.75923 15.2088L16.8317 6.79096C16.9904 6.60755 17.2148 6.49393 17.4566 6.47466C17.6983 6.4554 17.9379 6.53204 18.1236 6.68802C18.3093 6.844 18.4261 7.06678 18.4489 7.30822C18.4716 7.54966 18.3985 7.79035 18.2452 7.97827Z" fill="#544293"/>
</svg>
