<svg width="18" height="18" viewBox="0 0 18 18" fill="none" xmlns="http://www.w3.org/2000/svg">
<g clip-path="url(#clip0_84_1092)">
<path d="M17.7804 0.219834C17.6398 0.0792307 17.4491 0.000244141 17.2502 0.000244141C17.0513 0.000244141 16.8606 0.0792307 16.7199 0.219834L9.0002 7.93958L1.28045 0.219834C1.1398 0.0792307 0.949072 0.000244141 0.750198 0.000244141C0.551325 0.000244141 0.360594 0.0792307 0.219948 0.219834C0.0793451 0.36048 0.000358582 0.551211 0.000358582 0.750084C0.000358582 0.948957 0.0793451 1.13969 0.219948 1.28033L7.9397 9.00008L0.219948 16.7198C0.0793451 16.8605 0.000358582 17.0512 0.000358582 17.2501C0.000358582 17.449 0.0793451 17.6397 0.219948 17.7803C0.360594 17.9209 0.551325 17.9999 0.750198 17.9999C0.949072 17.9999 1.1398 17.9209 1.28045 17.7803L9.0002 10.0606L16.7199 17.7803C16.8606 17.9209 17.0513 17.9999 17.2502 17.9999C17.4491 17.9999 17.6398 17.9209 17.7804 17.7803C17.9211 17.6397 18 17.449 18 17.2501C18 17.0512 17.9211 16.8605 17.7804 16.7198L10.0607 9.00008L17.7804 1.28033C17.9211 1.13969 18 0.948957 18 0.750084C18 0.551211 17.9211 0.36048 17.7804 0.219834Z" fill="#374957"/>
</g>
<defs>
<clipPath id="clip0_84_1092">
<rect width="18" height="18" fill="white"/>
</clipPath>
</defs>
</svg>
