<svg width="12" height="12" viewBox="0 0 12 12" fill="none" xmlns="http://www.w3.org/2000/svg">
<path d="M5.42937 2.35624C5.60898 1.80345 6.39103 1.80345 6.57064 2.35624L7.21238 4.33132C7.2927 4.57853 7.52308 4.74591 7.78301 4.74591H9.85973C10.441 4.74591 10.6826 5.48968 10.2124 5.83132L8.5323 7.05198C8.32201 7.20477 8.23402 7.47559 8.31434 7.7228L8.95608 9.69788C9.13569 10.2507 8.503 10.7103 8.03278 10.3687L6.35267 9.14804C6.14238 8.99525 5.85762 8.99525 5.64733 9.14804L3.96723 10.3687C3.497 10.7103 2.86431 10.2507 3.04392 9.69788L3.68567 7.7228C3.76599 7.47559 3.678 7.20477 3.4677 7.05198L1.7876 5.83132C1.31737 5.48968 1.55904 4.74591 2.14027 4.74591H4.21699C4.47693 4.74591 4.7073 4.57853 4.78763 4.33132L5.42937 2.35624Z" fill="#FFEB3B"/>
</svg>
